<?xml version="1.0" encoding="UTF-8"?>
<svg version="1.1" xmlns="http://www.w3.org/2000/svg" width="1200" height="1200">
<path d="M0 0 C2.53654471 0.80530404 4.34928112 1.63658004 6.625 2.9375 C8.05188948 3.70218475 9.4789892 4.46647728 10.90625 5.23046875 C11.70546875 5.66794434 12.5046875 6.10541992 13.328125 6.55615234 C16.29238968 8.15800371 19.28268792 9.70160829 22.28125 11.23828125 C33.87227657 17.17977301 45.38100124 23.24937781 56.79150391 29.53027344 C63.64219477 33.29011796 70.55707515 36.91370819 77.5 40.5 C85.34546481 44.55248895 93.13942935 48.67897209 100.875 52.9375 C109.01928433 57.41982875 117.2361101 61.74238621 125.5 66 C134.66757187 70.72319705 143.75896441 75.55791818 152.79296875 80.53125 C159.64333072 84.29047338 166.55759377 87.91397608 173.5 91.5 C181.34546481 95.55248895 189.13942935 99.67897209 196.875 103.9375 C205.01928433 108.41982875 213.2361101 112.74238621 221.5 117 C230.66757187 121.72319705 239.75896441 126.55791818 248.79296875 131.53125 C255.64333072 135.29047338 262.55759377 138.91397608 269.5 142.5 C277.34546481 146.55248895 285.13942935 150.67897209 292.875 154.9375 C301.01928433 159.41982875 309.2361101 163.74238621 317.5 168 C326.66757187 172.72319705 335.75896441 177.55791818 344.79296875 182.53125 C351.64333072 186.29047338 358.55759377 189.91397608 365.5 193.5 C373.34546481 197.55248895 381.13942935 201.67897209 388.875 205.9375 C397.01928433 210.41982875 405.2361101 214.74238621 413.5 219 C422.66610893 223.72244334 431.75632181 228.55593264 440.78857422 233.52905273 C447.68104822 237.31181424 454.63938435 240.95502996 461.625 244.5625 C472.52155514 250.18969391 483.29219024 256.02215404 494 262 C494 262.99 494 263.98 494 265 C481.28439027 272.07068424 468.44937205 278.87047631 455.5 285.5 C446.31235817 290.20393192 437.15622156 294.93732135 428.125 299.9375 C417.92661703 305.58218639 407.55895505 310.87971018 397.1817627 316.1852417 C388.35052108 320.70278483 379.55670828 325.26160969 370.875 330.0625 C367.25470874 332.05037681 363.62905986 334.02817686 360 336 C359.36179321 336.34710022 358.72358643 336.69420044 358.06604004 337.05181885 C353.64100493 339.45424212 349.2027172 341.82979248 344.75006104 344.18063354 C343.26098526 344.97105751 341.77566317 345.7685977 340.29437256 346.57351685 C338.21627318 347.70111906 336.1260761 348.80229869 334.03125 349.8984375 C333.41029449 350.24248123 332.78933899 350.58652496 332.14956665 350.94099426 C329.00700599 352.55062009 327.36055307 353.07543327 323.86328125 352.34375 C322.44595703 351.67859375 322.44595703 351.67859375 321 351 C320.19369141 350.62439941 319.38738281 350.24879883 318.55664062 349.86181641 C317.76451172 349.44593262 316.97238281 349.03004883 316.15625 348.6015625 C315.25165039 348.1286377 314.34705078 347.65571289 313.41503906 347.16845703 C312.45307617 346.65911621 311.49111328 346.14977539 310.5 345.625 C309.48389648 345.09116699 308.46779297 344.55733398 307.42089844 344.00732422 C299.75474734 339.96545223 292.14870839 335.81840217 284.5546875 331.64306641 C276.12020947 327.02411447 267.58082243 322.61768608 259.03271484 318.21362305 C251.02610367 314.07814628 243.10103038 309.81449476 235.20703125 305.46875 C228.35666928 301.70952662 221.44240623 298.08602392 214.5 294.5 C205.76155194 289.98625034 197.10182228 285.35370657 188.48657227 280.60961914 C179.7099347 275.7977021 170.82326521 271.20365832 161.92041016 266.63110352 C160.83163574 266.07092529 159.74286133 265.51074707 158.62109375 264.93359375 C157.6561499 264.43915771 156.69120605 263.94472168 155.69702148 263.43530273 C153 262 153 262 150.46118164 260.25415039 C148.10210667 258.79590744 148.10210667 258.79590744 145.59350586 259.11401367 C142.39108866 260.20801462 139.50806894 261.61418086 136.50390625 263.17578125 C135.88305649 263.49669235 135.26220673 263.81760345 134.62254333 264.14823914 C132.5991423 265.1966166 130.58076444 266.25427229 128.5625 267.3125 C127.14924396 268.04782482 125.73583101 268.78284815 124.32226562 269.51757812 C115.63240696 274.04529659 107.00780088 278.68249772 98.42993164 283.41918945 C89.86195217 288.12845865 81.16686686 292.58085 72.46820068 297.04202271 C64.29384175 301.23671086 56.16672436 305.49186902 48.125 309.9375 C37.50890061 315.80351402 26.72976954 321.34094795 15.93212891 326.86303711 C6.90406531 331.482941 -2.06685905 336.1990489 -11 341 C-8.23734159 343.17201293 -5.47810505 344.89641624 -2.3515625 346.49609375 C-1.44051758 346.9657959 -0.52947266 347.43549805 0.40917969 347.91943359 C1.38790039 348.42039551 2.36662109 348.92135742 3.375 349.4375 C11.22121821 353.48887171 19.01582937 357.61370765 26.75 361.875 C36.07716402 367.00502471 45.50917468 371.91358746 54.97167969 376.78857422 C62.93051553 380.89924391 70.80652166 385.13938012 78.65234375 389.4609375 C85.87585388 393.42390823 93.17587724 397.22671741 100.5 401 C109.60834908 405.6924903 118.644356 410.48901445 127.61279297 415.44335938 C132.77718888 418.28287674 137.97865275 421.03688421 143.2265625 423.71875 C144.14921906 424.19139282 144.14921906 424.19139282 145.09051514 424.67358398 C148.11131921 426.21984523 151.13599366 427.7569053 154.16796875 429.28125 C155.25980469 429.838125 156.35164062 430.395 157.4765625 430.96875 C158.44674316 431.45794922 159.41692383 431.94714844 160.41650391 432.45117188 C163.04968976 434.02978944 164.93585681 435.74156301 167 438 C166.05495605 438.48243164 165.10991211 438.96486328 164.13623047 439.46191406 C141.11809275 451.20170223 141.11809275 451.20170223 118.36865234 463.45019531 C110.16410938 467.966939 101.83567253 472.23215342 93.5 476.5 C83.41245449 481.66488329 73.39063474 486.91043926 63.47363281 492.39794922 C54.44281059 497.36540746 45.26230308 502.03573756 36.08840942 506.73141479 C25.26803088 512.27333377 14.55245918 517.9594221 4 524 C4.87229248 524.45101074 4.87229248 524.45101074 5.76220703 524.91113281 C16.52433713 530.4827619 27.25533923 536.09814934 37.875 541.9375 C46.74320797 546.81189797 55.69686541 551.50242497 64.6875 556.14648438 C71.46612488 559.65714257 78.18774209 563.2560813 84.875 566.9375 C93.01928433 571.41982875 101.2361101 575.74238621 109.5 580 C118.66757187 584.72319705 127.75896441 589.55791818 136.79296875 594.53125 C143.64333072 598.29047338 150.55759377 601.91397608 157.5 605.5 C165.34546481 609.55248895 173.13942935 613.67897209 180.875 617.9375 C189.01928433 622.41982875 197.2361101 626.74238621 205.5 631 C214.66757187 635.72319705 223.75896441 640.55791818 232.79296875 645.53125 C239.64333072 649.29047338 246.55759377 652.91397608 253.5 656.5 C261.34546481 660.55248895 269.13942935 664.67897209 276.875 668.9375 C285.01928433 673.41982875 293.2361101 677.74238621 301.5 682 C310.66757187 686.72319705 319.75896441 691.55791818 328.79296875 696.53125 C335.64333072 700.29047338 342.55759377 703.91397608 349.5 707.5 C357.34546481 711.55248895 365.13942935 715.67897209 372.875 719.9375 C381.01928433 724.41982875 389.2361101 728.74238621 397.5 733 C406.66757187 737.72319705 415.75896441 742.55791818 424.79296875 747.53125 C431.64333315 751.29047472 438.55763512 754.91389184 445.5 758.5 C455.4041918 763.61726772 465.21224229 768.88945213 474.984375 774.25390625 C481.62336632 777.89772045 488.30750127 781.45568603 495 785 C495 785.66 495 786.32 495 787 C480.76843317 794.68139064 466.50847712 802.29405205 452.125 809.6875 C443.77486884 813.979974 435.46937055 818.33590979 427.25 822.875 C417.37834973 828.32577042 407.36194704 833.47456482 397.32580566 838.61322021 C387.97648315 843.40281703 378.70148148 848.29264377 369.50878906 853.37817383 C355.19418953 861.25012281 340.61158803 868.69420599 326 876 C323.45996094 874.92700195 323.45996094 874.92700195 320.234375 873.23828125 C319.65349121 872.93664566 319.07260742 872.63501007 318.47412109 872.32423401 C316.56180631 871.32827368 314.6559176 870.32064101 312.75 869.3125 C311.42245532 868.61751438 310.09465361 867.92301951 308.76660156 867.22900391 C300.16275055 862.72102869 291.61850958 858.1072396 283.11035156 853.42114258 C276.29355419 849.67516086 269.41065985 846.06946836 262.5 842.5 C254.6545274 838.4475269 246.86057017 834.32102765 239.125 830.0625 C230.98071567 825.58017125 222.7638899 821.25761379 214.5 817 C206.2361041 812.74238312 198.01938035 808.41966218 189.875 803.9375 C178.88869282 797.89208157 167.83083227 791.94231992 156.58837891 786.38476562 C154 785 154 785 152.04833984 783.47460938 C149.88273292 781.88700723 148.69264707 781.2514709 146 781 C140.42240594 782.81886893 135.47422372 785.63561419 130.375 788.5 C128.88046343 789.30887339 127.38435187 790.11484313 125.88671875 790.91796875 C122.2175155 792.89454337 118.5684009 794.90493437 114.92614746 796.93066406 C112.32571383 798.37434228 109.71431085 799.79750419 107.1015625 801.21875 C104.55370471 802.60596492 102.00765139 803.99577366 99.46826172 805.3984375 C91.23165539 809.93431745 82.86880731 814.21507013 74.5 818.5 C64.36839749 823.68758422 54.30258202 828.95712486 44.33959961 834.46386719 C35.06198156 839.56633943 25.64306765 844.39185327 16.22021484 849.21899414 C14.97100844 849.85949836 13.72182204 850.50004158 12.47265625 851.140625 C11.86435974 851.45196884 11.25606323 851.76331268 10.6293335 852.08409119 C7.3320819 853.77789339 4.05380545 855.50158369 0.79248047 857.26367188 C-0.23903893 857.82027496 -0.23903893 857.82027496 -1.29139709 858.38812256 C-2.61543438 859.10489912 -3.93749927 859.82533431 -5.25730896 860.54986572 C-9.78090877 863 -9.78090877 863 -12 863 C-12 863.66 -12 864.32 -12 865 C-10.72624512 865.38671875 -10.72624512 865.38671875 -9.42675781 865.78125 C-5.82041237 867.06387158 -2.52978822 868.68856997 0.828125 870.5 C1.48160919 870.84761887 2.13509338 871.19523773 2.80838013 871.5533905 C4.95788638 872.6980055 7.10390077 873.84901163 9.25 875 C10.7674841 875.80948222 12.28522962 876.61847453 13.80322266 877.42700195 C16.96062351 879.10915864 20.11688529 880.79342604 23.27246094 882.47900391 C27.78261978 884.886324 32.29995359 887.27986663 36.8203125 889.66796875 C37.53152756 890.04373047 38.24274261 890.41949219 38.97550964 890.80664062 C40.39998755 891.55917433 41.82448188 892.31167697 43.24899292 893.06414795 C55.57183398 899.57536275 67.86715234 906.13593185 80.14453125 912.73242188 C88.29953575 917.107242 96.49561148 921.39753561 104.71069336 925.65820312 C112.00212289 929.45124843 119.21501506 933.37616468 126.41333008 937.3425293 C131.64163957 940.20954581 136.90300203 943.00228864 142.20703125 945.7265625 C142.81878204 946.04116425 143.43053284 946.35576599 144.06082153 946.67990112 C147.06275256 948.22197981 150.06825297 949.75610679 153.07910156 951.28076172 C154.16803711 951.83779785 155.25697266 952.39483398 156.37890625 952.96875 C157.3438501 953.45794922 158.30879395 953.94714844 159.30297852 954.45117188 C162.1164396 956.06686818 164.52216696 957.91209978 167 960 C154.60485021 966.87805019 142.11258643 973.53207114 129.5 980 C120.64719355 984.54010275 111.83309603 989.12337647 103.125 993.9375 C93.2959453 999.36974092 83.32023628 1004.49594509 73.32525635 1009.61349487 C63.97379985 1014.40418816 54.69585136 1019.29375366 45.50219727 1024.38256836 C35.46518045 1029.90448747 25.25384918 1035.09240723 15.05273438 1040.30273438 C14.35865982 1040.65790634 13.66458527 1041.01307831 12.94947815 1041.37901306 C11.64589451 1042.04580794 10.3415324 1042.71108407 9.03623962 1043.37452698 C6.37650303 1044.73497361 3.8504712 1046.10194702 1.37915039 1047.78686523 C-1 1049 -1 1049 -3.51586914 1048.83129883 C-6.0798503 1047.9732786 -8.35519916 1046.96194544 -10.74609375 1045.69921875 C-11.65391602 1045.22307129 -12.56173828 1044.74692383 -13.49707031 1044.25634766 C-14.95258301 1043.47976807 -14.95258301 1043.47976807 -16.4375 1042.6875 C-17.45811523 1042.14915527 -18.47873047 1041.61081055 -19.53027344 1041.05615234 C-27.20891446 1036.99203341 -34.83209087 1032.82875854 -42.44506836 1028.64331055 C-50.87950064 1024.02404592 -59.41908226 1019.61773519 -67.96728516 1015.21362305 C-75.97389633 1011.07814628 -83.89896962 1006.81449476 -91.79296875 1002.46875 C-98.64333072 998.70952662 -105.55759377 995.08602392 -112.5 991.5 C-120.34546481 987.44751105 -128.13942935 983.32102791 -135.875 979.0625 C-144.01928433 974.58017125 -152.2361101 970.25761379 -160.5 966 C-169.66757187 961.27680295 -178.75896441 956.44208182 -187.79296875 951.46875 C-194.64333072 947.70952662 -201.55759377 944.08602392 -208.5 940.5 C-216.34546481 936.44751105 -224.13942935 932.32102791 -231.875 928.0625 C-240.01928433 923.58017125 -248.2361101 919.25761379 -256.5 915 C-265.66757187 910.27680295 -274.75896441 905.44208182 -283.79296875 900.46875 C-290.64333072 896.70952662 -297.55759377 893.08602392 -304.5 889.5 C-312.34546481 885.44751105 -320.13942935 881.32102791 -327.875 877.0625 C-336.01928433 872.58017125 -344.2361101 868.25761379 -352.5 864 C-361.66757187 859.27680295 -370.75896441 854.44208182 -379.79296875 849.46875 C-386.64333072 845.70952662 -393.55759377 842.08602392 -400.5 838.5 C-408.34546481 834.44751105 -416.13942935 830.32102791 -423.875 826.0625 C-432.01928702 821.58016977 -440.23615146 817.25769874 -448.5 813 C-459.64542984 807.25649813 -470.67599466 801.3288846 -481.66015625 795.28369141 C-486.7550563 792.48851356 -491.87779351 789.74472952 -497 787 C-497 786.34 -497 785.68 -497 785 C-482.76843452 777.31861009 -468.50850097 769.70589957 -454.125 762.3125 C-445.81612166 758.04135964 -437.55206065 753.70714183 -429.375 749.1875 C-419.09193913 743.50629952 -408.64373877 738.16376045 -398.18487549 732.8163147 C-389.3113346 728.27703336 -380.47478432 723.69628226 -371.75 718.875 C-363.4029943 714.28692702 -355.03313405 709.74293973 -346.60656738 705.30255127 C-345.21439719 704.56564574 -343.82523887 703.82301867 -342.43933105 703.07440186 C-340.49862819 702.02746389 -338.54799715 701.00184812 -336.59375 699.98046875 C-334.90282227 699.08171021 -334.90282227 699.08171021 -333.17773438 698.16479492 C-328.69511246 696.52169496 -325.87273422 697.21464173 -321.55664062 699.0246582 C-320.76451172 699.44577881 -319.97238281 699.86689941 -319.15625 700.30078125 C-318.25165039 700.77692871 -317.34705078 701.25307617 -316.41503906 701.74365234 C-315.45307617 702.26137207 -314.49111328 702.7790918 -313.5 703.3125 C-312.48389648 703.85084473 -311.46779297 704.38918945 -310.42089844 704.94384766 C-302.76256802 709.01478003 -295.15494942 713.17861068 -287.5546875 717.35668945 C-279.11905568 721.97702002 -270.57797819 726.38387706 -262.02832031 730.78857422 C-254.06948447 734.89924391 -246.19347834 739.13938012 -238.34765625 743.4609375 C-231.12414574 747.42390843 -223.82411667 751.2267049 -216.5 755 C-208.2360984 759.25760213 -200.01936424 763.58031177 -191.875 768.0625 C-182.98850139 772.95280968 -174.02573778 777.68050716 -165.00830078 782.32495117 C-160.24504893 784.77996158 -155.50132424 787.2535472 -150.81640625 789.85546875 C-150.03692627 790.28448486 -149.25744629 790.71350098 -148.4543457 791.15551758 C-147.03344505 791.94158456 -145.61863552 792.73881537 -144.21166992 793.54956055 C-140.25226274 795.72813261 -138.30758192 796.22815331 -134 795 C-132.24426061 794.22010722 -130.51707188 793.37410735 -128.81640625 792.48046875 C-127.31980469 791.69881348 -127.31980469 791.69881348 -125.79296875 790.90136719 C-124.72691406 790.33579102 -123.66085937 789.77021484 -122.5625 789.1875 C-121.44359375 788.60000977 -120.3246875 788.01251953 -119.171875 787.40722656 C-111.35909786 783.29069818 -103.6091493 779.06571106 -95.87524414 774.8034668 C-86.78245041 769.82240775 -77.55442696 765.1120156 -68.3269043 760.3873291 C-59.82340521 756.03104799 -51.36153983 751.62506987 -43 747 C-32.40735772 741.14274728 -21.64848434 735.62184141 -10.87670898 730.10375977 C-9.48286669 729.3895705 -8.08906708 728.67529792 -6.6953125 727.9609375 C-6.0225679 727.61612839 -5.3498233 727.27131927 -4.6566925 726.9160614 C1.42046961 723.79542756 7.46082407 720.606727 13.45825195 717.33520508 C17.78864111 715 17.78864111 715 20 715 C17.44833234 712.06692864 14.58460254 710.59349655 11.13671875 708.84765625 C10.26751549 708.40369255 10.26751549 708.40369255 9.38075256 707.95075989 C8.13481056 707.31478369 6.8876084 706.68127137 5.63928223 706.04998779 C2.32458524 704.37294474 -0.98019373 702.67659476 -4.28515625 700.98046875 C-5.27985428 700.47057404 -5.27985428 700.47057404 -6.29464722 699.95037842 C-11.99841351 697.01870476 -17.6352407 693.97371891 -23.25 690.875 C-30.94300041 686.63541899 -38.69570968 682.53104306 -46.5 678.5 C-54.3454726 674.4475269 -62.13942983 670.32102765 -69.875 666.0625 C-79.16024654 660.95222563 -88.55074753 656.06498192 -97.97216797 651.21118164 C-105.92353483 647.10435097 -113.79328085 642.87012298 -121.63037109 638.55004883 C-130.15961865 633.86807279 -138.79968188 629.40621504 -147.46484375 624.98242188 C-154.78994903 621.22243736 -161.92924013 617.21877547 -169 613 C-165.96708559 610.59993251 -162.84304659 608.73912713 -159.43359375 606.91796875 C-158.32193848 606.32282471 -157.2102832 605.72768066 -156.06494141 605.11450195 C-154.85587586 604.47201441 -153.6467265 603.82968457 -152.4375 603.1875 C-151.1814152 602.51728866 -149.92539405 601.846958 -148.66943359 601.17651367 C-139.06064806 596.05638538 -129.39699649 591.04584481 -119.71948242 586.05688477 C-112.84419674 582.50332694 -106.02697999 578.86225868 -99.25 575.125 C-89.74961599 569.88661101 -80.12546602 564.91102241 -70.47332764 559.96054077 C-61.35262352 555.27995812 -52.30859717 550.48988392 -43.33349609 545.53417969 C-31.02475246 538.7681861 -18.49640153 532.4104403 -6 526 C-15.90881849 520.30494612 -25.94392413 514.90533265 -36.09301758 509.65087891 C-42.69309737 506.22566416 -49.23593139 502.71077502 -55.75 499.125 C-65.07594932 493.99614986 -74.50629785 489.08801004 -83.96728516 484.21362305 C-91.97389633 480.07814628 -99.89896962 475.81449476 -107.79296875 471.46875 C-114.64333072 467.70952662 -121.55759377 464.08602392 -128.5 460.5 C-136.34546481 456.44751105 -144.13942935 452.32102791 -151.875 448.0625 C-160.01928433 443.58017125 -168.2361101 439.25761379 -176.5 435 C-185.66757187 430.27680295 -194.75896441 425.44208182 -203.79296875 420.46875 C-210.64333072 416.70952662 -217.55759377 413.08602392 -224.5 409.5 C-232.34546481 405.44751105 -240.13942935 401.32102791 -247.875 397.0625 C-256.01928433 392.58017125 -264.2361101 388.25761379 -272.5 384 C-281.66757187 379.27680295 -290.75896441 374.44208182 -299.79296875 369.46875 C-306.64333112 365.7095264 -313.55760066 362.08603795 -320.5 358.5 C-329.29727 353.9556657 -338.01591509 349.29168096 -346.69140625 344.51953125 C-354.62540227 340.17010321 -362.64947256 336.00549912 -370.68798828 331.85327148 C-377.46644362 328.34268237 -384.18790169 324.74383084 -390.875 321.0625 C-399.01928433 316.58017125 -407.2361101 312.25761379 -415.5 308 C-424.66610893 303.27755666 -433.75632181 298.44406736 -442.78857422 293.47094727 C-449.68104822 289.68818576 -456.63938435 286.04497004 -463.625 282.4375 C-474.52155514 276.81030609 -485.29219024 270.97784596 -496 265 C-496 264.01 -496 263.02 -496 262 C-481.76843317 254.31860936 -467.50847712 246.70594795 -453.125 239.3125 C-444.77486884 235.020026 -436.46937055 230.66409021 -428.25 226.125 C-418.37834973 220.67422958 -408.36194704 215.52543518 -398.32580566 210.38677979 C-389.82256045 206.03062284 -381.36292568 201.62187154 -373 197 C-369.3381899 194.99101083 -365.67064581 192.99279814 -362 191 C-361.0394873 190.47774841 -361.0394873 190.47774841 -360.05957031 189.94494629 C-355.63590809 187.54347819 -351.19917968 185.16852682 -346.74804688 182.81835938 C-345.25983159 182.02835109 -343.7753667 181.23123337 -342.29492188 180.42675781 C-340.21664146 179.29905987 -338.12626028 178.19779103 -336.03125 177.1015625 C-335.41028442 176.75751373 -334.78931885 176.41346497 -334.14953613 176.05899048 C-331.0069857 174.44936924 -329.36053995 173.92456948 -325.86328125 174.65625 C-324.91839844 175.0996875 -323.97351563 175.543125 -323 176 C-322.19369141 176.37560059 -321.38738281 176.75120117 -320.55664062 177.13818359 C-319.76451172 177.55406738 -318.97238281 177.96995117 -318.15625 178.3984375 C-317.25165039 178.8713623 -316.34705078 179.34428711 -315.41503906 179.83154297 C-314.45307617 180.34088379 -313.49111328 180.85022461 -312.5 181.375 C-311.48389648 181.90883301 -310.46779297 182.44266602 -309.42089844 182.99267578 C-301.75474734 187.03454777 -294.14870839 191.18159783 -286.5546875 195.35693359 C-278.12020947 199.97588553 -269.58082243 204.38231392 -261.03271484 208.78637695 C-253.02610367 212.92185372 -245.10103038 217.18550524 -237.20703125 221.53125 C-230.35666928 225.29047338 -223.44240623 228.91397608 -216.5 232.5 C-207.75338658 237.01796739 -199.08586928 241.65535989 -190.46240234 246.40356445 C-181.93779045 251.0771388 -173.30622481 255.53624268 -164.65209961 259.96459961 C-159.67847568 262.52103439 -154.74692371 265.09481388 -149.94140625 267.95703125 C-149.20841309 268.39184814 -148.47541992 268.82666504 -147.72021484 269.2746582 C-146.41625067 270.06070146 -145.12239046 270.86390422 -143.84228516 271.68823242 C-141.06509276 273.36623544 -139.48337002 274.07794085 -136.23828125 273.5546875 C-131.60896551 271.33216921 -127.03843455 269.02794647 -122.5 266.625 C-120.96931885 265.82098755 -120.96931885 265.82098755 -119.40771484 265.00073242 C-111.88431088 261.03478563 -104.42606368 256.9564486 -96.9765625 252.85400391 C-87.84867483 247.85898532 -78.58835011 243.12940651 -69.32745361 238.38760376 C-60.82376825 234.03123017 -52.36175711 229.62510445 -44 225 C-34.86043195 219.94707283 -25.60234926 215.14371135 -16.3125 210.375 C-14.88151006 209.63989328 -13.45052047 208.90478586 -12.01953125 208.16967773 C-9.27316953 206.75933608 -6.52655617 205.34948573 -3.77978516 203.93994141 C1.3183577 201.32344443 6.41534351 198.70514052 11.5 196.0625 C12.27045654 195.66788574 13.04091309 195.27327148 13.8347168 194.86669922 C17.55703089 193.12176049 17.55703089 193.12176049 20 190 C19.11892578 189.72397949 18.23785156 189.44795898 17.33007812 189.16357422 C14.28250574 188.09871132 11.57492381 186.87552586 8.71875 185.3828125 C7.72375488 184.86468994 6.72875977 184.34656738 5.70361328 183.81274414 C4.6464209 183.25578857 3.58922852 182.69883301 2.5 182.125 C1.38995605 181.54419678 0.27991211 180.96339355 -0.86376953 180.36499023 C-8.8065904 176.19430161 -16.68722235 171.91710499 -24.546875 167.59228516 C-31.80619867 163.61291736 -39.14102126 159.79139724 -46.5 156 C-55.66757187 151.27680295 -64.75896441 146.44208182 -73.79296875 141.46875 C-80.64333072 137.70952662 -87.55759377 134.08602392 -94.5 130.5 C-102.34546586 126.44751051 -110.13941493 122.3210037 -117.875 118.0625 C-127.2951913 112.87832082 -136.81551744 107.90119377 -146.37646484 102.98266602 C-153.9664257 99.07493492 -161.49668697 95.07103617 -169 91 C-166.52096291 88.20167715 -163.81926091 86.66492615 -160.53125 84.91796875 C-159.41637207 84.32282471 -158.30149414 83.72768066 -157.15283203 83.11450195 C-155.93531284 82.47199458 -154.71769966 81.82966528 -153.5 81.1875 C-152.23924152 80.51750805 -150.97866475 79.84717406 -149.71826172 79.17651367 C-140.09005804 74.06331421 -130.40939956 69.05247112 -120.71972656 64.05688477 C-113.8442688 60.50349679 -107.02704375 56.86229385 -100.25 53.125 C-90.74896139 47.88625008 -81.12416842 42.91025931 -71.47131348 37.95953369 C-62.39384817 33.30128135 -53.39364355 28.53370175 -44.46313477 23.59790039 C-34.85759434 18.31767752 -25.09958217 13.33313896 -15.34179688 8.34179688 C-14.36944847 7.84342064 -14.36944847 7.84342064 -13.37745667 7.3349762 C-11.60719409 6.42801401 -9.83574077 5.52337707 -8.06420898 4.61889648 C-5.00600887 3.06303418 -5.00600887 3.06303418 -2.28393555 1.22900391 C-1.53023682 0.82343262 -0.77653809 0.41786133 0 0 Z " fill="#000000" transform="translate(601,76)"/>
<path d="M0 0 C2.53654471 0.80530404 4.34928112 1.63658004 6.625 2.9375 C8.05188948 3.70218475 9.4789892 4.46647728 10.90625 5.23046875 C11.70546875 5.66794434 12.5046875 6.10541992 13.328125 6.55615234 C16.29238968 8.15800371 19.28268792 9.70160829 22.28125 11.23828125 C33.87227657 17.17977301 45.38100124 23.24937781 56.79150391 29.53027344 C63.64219477 33.29011796 70.55707515 36.91370819 77.5 40.5 C85.34546481 44.55248895 93.13942935 48.67897209 100.875 52.9375 C109.01928433 57.41982875 117.2361101 61.74238621 125.5 66 C134.66757187 70.72319705 143.75896441 75.55791818 152.79296875 80.53125 C159.64333072 84.29047338 166.55759377 87.91397608 173.5 91.5 C181.34546481 95.55248895 189.13942935 99.67897209 196.875 103.9375 C205.01928433 108.41982875 213.2361101 112.74238621 221.5 117 C230.66757187 121.72319705 239.75896441 126.55791818 248.79296875 131.53125 C255.64333072 135.29047338 262.55759377 138.91397608 269.5 142.5 C277.34546481 146.55248895 285.13942935 150.67897209 292.875 154.9375 C301.01928433 159.41982875 309.2361101 163.74238621 317.5 168 C326.66757187 172.72319705 335.75896441 177.55791818 344.79296875 182.53125 C351.64333072 186.29047338 358.55759377 189.91397608 365.5 193.5 C373.34546481 197.55248895 381.13942935 201.67897209 388.875 205.9375 C397.01928433 210.41982875 405.2361101 214.74238621 413.5 219 C422.66610893 223.72244334 431.75632181 228.55593264 440.78857422 233.52905273 C447.68104822 237.31181424 454.63938435 240.95502996 461.625 244.5625 C472.52155514 250.18969391 483.29219024 256.02215404 494 262 C494 262.99 494 263.98 494 265 C481.28439027 272.07068424 468.44937205 278.87047631 455.5 285.5 C446.31235817 290.20393192 437.15622156 294.93732135 428.125 299.9375 C417.92661703 305.58218639 407.55895505 310.87971018 397.1817627 316.1852417 C388.35052108 320.70278483 379.55670828 325.26160969 370.875 330.0625 C367.25470874 332.05037681 363.62905986 334.02817686 360 336 C359.36179321 336.34710022 358.72358643 336.69420044 358.06604004 337.05181885 C353.64100493 339.45424212 349.2027172 341.82979248 344.75006104 344.18063354 C343.26098526 344.97105751 341.77566317 345.7685977 340.29437256 346.57351685 C338.21627318 347.70111906 336.1260761 348.80229869 334.03125 349.8984375 C333.41029449 350.24248123 332.78933899 350.58652496 332.14956665 350.94099426 C329.00700599 352.55062009 327.36055307 353.07543327 323.86328125 352.34375 C322.44595703 351.67859375 322.44595703 351.67859375 321 351 C320.19369141 350.62439941 319.38738281 350.24879883 318.55664062 349.86181641 C317.76451172 349.44593262 316.97238281 349.03004883 316.15625 348.6015625 C315.25165039 348.1286377 314.34705078 347.65571289 313.41503906 347.16845703 C312.45307617 346.65911621 311.49111328 346.14977539 310.5 345.625 C309.48389648 345.09116699 308.46779297 344.55733398 307.42089844 344.00732422 C299.75474734 339.96545223 292.14870839 335.81840217 284.5546875 331.64306641 C276.12020947 327.02411447 267.58082243 322.61768608 259.03271484 318.21362305 C251.02610367 314.07814628 243.10103038 309.81449476 235.20703125 305.46875 C228.35666928 301.70952662 221.44240623 298.08602392 214.5 294.5 C205.76155194 289.98625034 197.10182228 285.35370657 188.48657227 280.60961914 C179.7099347 275.7977021 170.82326521 271.20365832 161.92041016 266.63110352 C160.83163574 266.07092529 159.74286133 265.51074707 158.62109375 264.93359375 C157.6561499 264.43915771 156.69120605 263.94472168 155.69702148 263.43530273 C153 262 153 262 150.46118164 260.25415039 C148.10210667 258.79590744 148.10210667 258.79590744 145.59350586 259.11401367 C142.39108866 260.20801462 139.50806894 261.61418086 136.50390625 263.17578125 C135.88305649 263.49669235 135.26220673 263.81760345 134.62254333 264.14823914 C132.5991423 265.1966166 130.58076444 266.25427229 128.5625 267.3125 C127.14924396 268.04782482 125.73583101 268.78284815 124.32226562 269.51757812 C115.63240696 274.04529659 107.00780088 278.68249772 98.42993164 283.41918945 C89.86195217 288.12845865 81.16686686 292.58085 72.46820068 297.04202271 C64.29384175 301.23671086 56.16672436 305.49186902 48.125 309.9375 C37.50890061 315.80351402 26.72976954 321.34094795 15.93212891 326.86303711 C6.90406531 331.482941 -2.06685905 336.1990489 -11 341 C-8.23734159 343.17201293 -5.47810505 344.89641624 -2.3515625 346.49609375 C-1.44051758 346.9657959 -0.52947266 347.43549805 0.40917969 347.91943359 C1.38790039 348.42039551 2.36662109 348.92135742 3.375 349.4375 C11.22121821 353.48887171 19.01582937 357.61370765 26.75 361.875 C36.07716402 367.00502471 45.50917468 371.91358746 54.97167969 376.78857422 C62.93051553 380.89924391 70.80652166 385.13938012 78.65234375 389.4609375 C85.87585388 393.42390823 93.17587724 397.22671741 100.5 401 C109.60834908 405.6924903 118.644356 410.48901445 127.61279297 415.44335938 C132.77718888 418.28287674 137.97865275 421.03688421 143.2265625 423.71875 C144.14921906 424.19139282 144.14921906 424.19139282 145.09051514 424.67358398 C148.11131921 426.21984523 151.13599366 427.7569053 154.16796875 429.28125 C155.25980469 429.838125 156.35164062 430.395 157.4765625 430.96875 C158.44674316 431.45794922 159.41692383 431.94714844 160.41650391 432.45117188 C163.04968976 434.02978944 164.93585681 435.74156301 167 438 C166.05495605 438.48243164 165.10991211 438.96486328 164.13623047 439.46191406 C141.11809275 451.20170223 141.11809275 451.20170223 118.36865234 463.45019531 C110.16410938 467.966939 101.83567253 472.23215342 93.5 476.5 C84.27110349 481.22524989 75.07387515 485.98100461 66 491 C55.45044116 496.83245862 44.73701211 502.33242825 34.01074219 507.83032227 C32.6126105 508.54699931 31.21449823 509.26371424 29.81640625 509.98046875 C28.79962296 510.50167046 28.79962296 510.50167046 27.76229858 511.03340149 C21.31651224 514.3420562 14.90414754 517.71305323 8.5168457 521.13330078 C-1.45028382 526.43713067 -1.45028382 526.43713067 -7 525 C-9.32983398 523.9753418 -9.32983398 523.9753418 -11.74609375 522.69921875 C-12.65407715 522.22299072 -13.56206055 521.7467627 -14.49755859 521.25610352 C-15.46773926 520.73846436 -16.43791992 520.2208252 -17.4375 519.6875 C-18.45666504 519.14988037 -19.47583008 518.61226074 -20.52587891 518.05834961 C-28.25207659 513.96881585 -35.92452056 509.78274454 -43.58569336 505.57299805 C-51.55541896 501.20715901 -59.61414829 497.02375796 -67.6875 492.85351562 C-74.46612488 489.34285743 -81.18774209 485.7439187 -87.875 482.0625 C-96.01928433 477.58017125 -104.2361101 473.25761379 -112.5 469 C-121.66757187 464.27680295 -130.75896441 459.44208182 -139.79296875 454.46875 C-146.64333072 450.70952662 -153.55759377 447.08602392 -160.5 443.5 C-168.34546481 439.44751105 -176.13942935 435.32102791 -183.875 431.0625 C-192.01928433 426.58017125 -200.2361101 422.25761379 -208.5 418 C-217.66757187 413.27680295 -226.75896441 408.44208182 -235.79296875 403.46875 C-242.64333112 399.7095264 -249.55760066 396.08603795 -256.5 392.5 C-265.29727 387.9556657 -274.01591509 383.29168096 -282.69140625 378.51953125 C-290.62540227 374.17010321 -298.64947256 370.00549912 -306.68798828 365.85327148 C-313.46644362 362.34268237 -320.18790169 358.74383084 -326.875 355.0625 C-335.01928433 350.58017125 -343.2361101 346.25761379 -351.5 342 C-360.66757187 337.27680295 -369.75896441 332.44208182 -378.79296875 327.46875 C-385.64333072 323.70952662 -392.55759377 320.08602392 -399.5 316.5 C-407.34546481 312.44751105 -415.13942935 308.32102791 -422.875 304.0625 C-431.01928702 299.58016977 -439.23615146 295.25769874 -447.5 291 C-458.64542984 285.25649813 -469.67599466 279.3288846 -480.66015625 273.28369141 C-485.7550563 270.48851356 -490.87779351 267.74472952 -496 265 C-496 264.01 -496 263.02 -496 262 C-481.76843317 254.31860936 -467.50847712 246.70594795 -453.125 239.3125 C-444.77486884 235.020026 -436.46937055 230.66409021 -428.25 226.125 C-418.37834973 220.67422958 -408.36194704 215.52543518 -398.32580566 210.38677979 C-389.82256045 206.03062284 -381.36292568 201.62187154 -373 197 C-369.3381899 194.99101083 -365.67064581 192.99279814 -362 191 C-361.0394873 190.47774841 -361.0394873 190.47774841 -360.05957031 189.94494629 C-355.63590809 187.54347819 -351.19917968 185.16852682 -346.74804688 182.81835938 C-345.25983159 182.02835109 -343.7753667 181.23123337 -342.29492188 180.42675781 C-340.21664146 179.29905987 -338.12626028 178.19779103 -336.03125 177.1015625 C-335.41028442 176.75751373 -334.78931885 176.41346497 -334.14953613 176.05899048 C-331.0069857 174.44936924 -329.36053995 173.92456948 -325.86328125 174.65625 C-324.91839844 175.0996875 -323.97351563 175.543125 -323 176 C-322.19369141 176.37560059 -321.38738281 176.75120117 -320.55664062 177.13818359 C-319.76451172 177.55406738 -318.97238281 177.96995117 -318.15625 178.3984375 C-317.25165039 178.8713623 -316.34705078 179.34428711 -315.41503906 179.83154297 C-314.45307617 180.34088379 -313.49111328 180.85022461 -312.5 181.375 C-311.48389648 181.90883301 -310.46779297 182.44266602 -309.42089844 182.99267578 C-301.75474734 187.03454777 -294.14870839 191.18159783 -286.5546875 195.35693359 C-278.12020947 199.97588553 -269.58082243 204.38231392 -261.03271484 208.78637695 C-253.02610367 212.92185372 -245.10103038 217.18550524 -237.20703125 221.53125 C-230.35666928 225.29047338 -223.44240623 228.91397608 -216.5 232.5 C-207.75338658 237.01796739 -199.08586928 241.65535989 -190.46240234 246.40356445 C-181.93779045 251.0771388 -173.30622481 255.53624268 -164.65209961 259.96459961 C-159.67847568 262.52103439 -154.74692371 265.09481388 -149.94140625 267.95703125 C-149.20841309 268.39184814 -148.47541992 268.82666504 -147.72021484 269.2746582 C-146.41625067 270.06070146 -145.12239046 270.86390422 -143.84228516 271.68823242 C-141.06509276 273.36623544 -139.48337002 274.07794085 -136.23828125 273.5546875 C-131.60896551 271.33216921 -127.03843455 269.02794647 -122.5 266.625 C-120.96931885 265.82098755 -120.96931885 265.82098755 -119.40771484 265.00073242 C-111.88431088 261.03478563 -104.42606368 256.9564486 -96.9765625 252.85400391 C-87.84867483 247.85898532 -78.58835011 243.12940651 -69.32745361 238.38760376 C-60.82376825 234.03123017 -52.36175711 229.62510445 -44 225 C-34.86043195 219.94707283 -25.60234926 215.14371135 -16.3125 210.375 C-14.88151006 209.63989328 -13.45052047 208.90478586 -12.01953125 208.16967773 C-9.27316953 206.75933608 -6.52655617 205.34948573 -3.77978516 203.93994141 C1.3183577 201.32344443 6.41534351 198.70514052 11.5 196.0625 C12.27045654 195.66788574 13.04091309 195.27327148 13.8347168 194.86669922 C17.55703089 193.12176049 17.55703089 193.12176049 20 190 C19.11892578 189.72397949 18.23785156 189.44795898 17.33007812 189.16357422 C14.28250574 188.09871132 11.57492381 186.87552586 8.71875 185.3828125 C7.72375488 184.86468994 6.72875977 184.34656738 5.70361328 183.81274414 C4.6464209 183.25578857 3.58922852 182.69883301 2.5 182.125 C1.38995605 181.54419678 0.27991211 180.96339355 -0.86376953 180.36499023 C-8.8065904 176.19430161 -16.68722235 171.91710499 -24.546875 167.59228516 C-31.80619867 163.61291736 -39.14102126 159.79139724 -46.5 156 C-55.66757187 151.27680295 -64.75896441 146.44208182 -73.79296875 141.46875 C-80.64333072 137.70952662 -87.55759377 134.08602392 -94.5 130.5 C-102.34546586 126.44751051 -110.13941493 122.3210037 -117.875 118.0625 C-127.2951913 112.87832082 -136.81551744 107.90119377 -146.37646484 102.98266602 C-153.9664257 99.07493492 -161.49668697 95.07103617 -169 91 C-166.52096291 88.20167715 -163.81926091 86.66492615 -160.53125 84.91796875 C-159.41637207 84.32282471 -158.30149414 83.72768066 -157.15283203 83.11450195 C-155.93531284 82.47199458 -154.71769966 81.82966528 -153.5 81.1875 C-152.23924152 80.51750805 -150.97866475 79.84717406 -149.71826172 79.17651367 C-140.09005804 74.06331421 -130.40939956 69.05247112 -120.71972656 64.05688477 C-113.8442688 60.50349679 -107.02704375 56.86229385 -100.25 53.125 C-90.74896139 47.88625008 -81.12416842 42.91025931 -71.47131348 37.95953369 C-62.39384817 33.30128135 -53.39364355 28.53370175 -44.46313477 23.59790039 C-34.85759434 18.31767752 -25.09958217 13.33313896 -15.34179688 8.34179688 C-14.36944847 7.84342064 -14.36944847 7.84342064 -13.37745667 7.3349762 C-11.60719409 6.42801401 -9.83574077 5.52337707 -8.06420898 4.61889648 C-5.00600887 3.06303418 -5.00600887 3.06303418 -2.28393555 1.22900391 C-1.53023682 0.82343262 -0.77653809 0.41786133 0 0 Z " fill="#513DE1" transform="translate(601,76)"/>
<path d="M0 0 C-0.33 0.66 -0.66 1.32 -1 2 C-2.98 1.34 -4.96 0.68 -7 0 C-7 -0.66 -7 -1.32 -7 -2 C-7.598125 -2.144375 -8.19625 -2.28875 -8.8125 -2.4375 C-10.56150404 -2.8872439 -12.28677023 -3.42892341 -14 -4 C-14 -4.66 -14 -5.32 -14 -6 C-17.26460973 -4.19587357 -18.88929795 -3.16605307 -21 0 C-21.886875 0.12375 -22.77375 0.2475 -23.6875 0.375 C-27.50110816 1.09454871 -29.25562437 2.47518285 -32.2578125 4.796875 C-34.65358476 6.4513545 -37.23720503 7.14484918 -40 8 C-40.33 8.66 -40.66 9.32 -41 10 C-42.66666667 10 -44.33333333 10 -46 10 C-46.495 11.485 -46.495 11.485 -47 13 C-47.99 13 -48.98 13 -50 13 C-52.20142332 15.4390706 -52.20142332 15.4390706 -54 18 C-54.99 17.67 -55.98 17.34 -57 17 C-59.50259479 18.24462788 -59.50259479 18.24462788 -62.0625 20 C-64.72265625 21.75 -64.72265625 21.75 -67 23 C-67.66 22.67 -68.32 22.34 -69 22 C-69.33 22.99 -69.66 23.98 -70 25 C-72.3984375 26.0625 -72.3984375 26.0625 -75.375 27 C-79.10411151 28.18072132 -81.38444079 29.08758284 -84 32 C-86.51578949 32.86480264 -88.30646447 33 -91 33 C-88.32310583 29.83485584 -84.90184748 28.2303214 -81.26171875 26.41015625 C-80.25852348 25.89919655 -80.25852348 25.89919655 -79.23506165 25.37791443 C-77.80025251 24.64750885 -76.36418869 23.91956374 -74.92700195 23.19384766 C-71.15696631 21.28930769 -67.39684159 19.3654248 -63.63671875 17.44140625 C-62.89001923 17.05969269 -62.1433197 16.67797913 -61.37399292 16.28469849 C-55.19611127 13.11872873 -49.08475007 9.84148416 -43 6.5 C-42.12802979 6.03182861 -41.25605957 5.56365723 -40.35766602 5.08129883 C-36.26108267 2.86984115 -32.31057763 0.58137626 -28.4453125 -2.015625 C-16.96114834 -9.44700626 -11.00237973 -7.83345744 0 0 Z " fill="#880CEA" transform="translate(617,84)"/>
<path d="M0 0 C8.52156114 4.2091695 17.01245434 8.47536415 25.4375 12.875 C26.17669678 13.2558374 26.91589355 13.6366748 27.67749023 14.02905273 C32.88386499 16.76772998 32.88386499 16.76772998 34 19 C33.04448242 19.48766846 32.08896484 19.97533691 31.10449219 20.4777832 C13.60349974 29.41572334 -3.88022532 38.34487242 -21 48 C-21.495 46.515 -21.495 46.515 -22 45 C-19.35261084 43.5393715 -18.10551666 43 -15 43 C-15 42.34 -15 41.68 -15 41 C-13.68 41 -12.36 41 -11 41 C-11 40.34 -11 39.68 -11 39 C-9.58521865 38.35004703 -8.16808513 37.70521278 -6.75 37.0625 C-5.56664062 36.52302734 -5.56664062 36.52302734 -4.359375 35.97265625 C-2.24176302 35.09966721 -0.23330638 34.48661492 2 34 C2 33.34 2 32.68 2 32 C3.98 31.67 5.96 31.34 8 31 C8 29.68 8 28.36 8 27 C8.66 27 9.32 27 10 27 C10 27.66 10 28.32 10 29 C10.66 29 11.32 29 12 29 C12 28.34 12 27.68 12 27 C13.32 27 14.64 27 16 27 C16 26.34 16 25.68 16 25 C16.99 25 17.98 25 19 25 C19 24.34 19 23.68 19 23 C21.68554688 21.58398438 21.68554688 21.58398438 24.37109375 20.16796875 C26.32267987 19.00980201 26.32267987 19.00980201 27 16 C26.01 16 25.02 16 24 16 C24 15.34 24 14.68 24 14 C23.113125 13.731875 22.22625 13.46375 21.3125 13.1875 C18.20992561 12.07525635 15.79249376 10.7184577 13 9 C11.34630643 8.30177383 9.68272986 7.62501395 8 7 C8 6.34 8 5.68 8 5 C7.236875 5.061875 6.47375 5.12375 5.6875 5.1875 C3 5 3 5 1.1875 3.625 C0 2 0 2 0 0 Z " fill="#7E16EC" transform="translate(734,495)"/>
<path d="M0 0 C0 0.99 0 1.98 0 3 C-1.95309888 4.40113616 -3.95708818 5.73339467 -6 7 C-6.66 7.66 -7.32 8.32 -8 9 C-9.66666667 9.33333333 -11.33333333 9.66666667 -13 10 C-17.92547577 11.96305194 -22.48340262 14.27523408 -27.0625 16.9375 C-27.64837891 17.27201172 -28.23425781 17.60652344 -28.83789062 17.95117188 C-31.67129585 19.58328876 -34.40901225 21.27952596 -37.109375 23.125 C-40.52363945 25.33965802 -43.92072427 26.60910715 -47.73046875 27.97265625 C-50.0536123 28.8541627 -50.0536123 28.8541627 -51.55078125 30.62109375 C-53 32 -53 32 -57 32 C-57 31.34 -57 30.68 -57 30 C-38.10109051 19.79944316 -19.10414591 9.81074864 0 0 Z " fill="#6723E7" transform="translate(620,268)"/>
<path d="M0 0 C-1.03984752 3.38693193 -2.08479651 4.04625264 -5.265625 5.78125 C-6.58815014 6.36697757 -7.91658521 6.93950511 -9.25 7.5 C-14.20312428 9.63110848 -18.50808065 11.97229745 -23 15 C-24.65017673 15.70649768 -26.31681923 16.37620138 -28 17 C-29.71745989 17.81435788 -31.42595874 18.64788145 -33.125 19.5 C-34.39730469 20.13421875 -34.39730469 20.13421875 -35.6953125 20.78125 C-38.16968298 22.03989141 -38.16968298 22.03989141 -41 24 C-41.66 23.67 -42.32 23.34 -43 23 C-43.33 24.32 -43.66 25.64 -44 27 C-44.99 27 -45.98 27 -47 27 C-46.86962891 25.21191406 -46.86962891 25.21191406 -46 23 C-43.46240234 21.29589844 -43.46240234 21.29589844 -40.0859375 19.609375 C-39.18221657 19.15024467 -39.18221657 19.15024467 -38.26023865 18.68183899 C-36.30468613 17.6916741 -34.34020067 16.72085314 -32.375 15.75 C-31.04054341 15.07881494 -29.70680154 14.40620701 -28.3737793 13.73217773 C-26.39846351 12.73386175 -24.42263976 11.73672489 -22.44395447 10.74510193 C-16.3737948 7.70249004 -10.40986052 4.48666392 -4.45703125 1.22265625 C-2 0 -2 0 0 0 Z " fill="#6526EA" transform="translate(526,117)"/>
<path d="M0 0 C0.66 0.33 1.32 0.66 2 1 C0.47758099 4.04483802 -1.95036084 4.55835239 -5 6 C-6.29326262 6.64263153 -7.58486373 7.28861489 -8.875 7.9375 C-21 14 -21 14 -23.109375 14.9921875 C-25.16350102 15.96925648 -25.16350102 15.96925648 -27 18 C-27.66 17.67 -28.32 17.34 -29 17 C-29.33 18.32 -29.66 19.64 -30 21 C-31.32 21 -32.64 21 -34 21 C-36.62595429 22.17341992 -39.10259559 23.38732176 -41.625 24.75 C-42.305625 25.09804688 -42.98625 25.44609375 -43.6875 25.8046875 C-48.49995241 28.36521571 -48.49995241 28.36521571 -51 33 C-51.495 31.515 -51.495 31.515 -52 30 C-52.99 29.67 -53.98 29.34 -55 29 C-54.11554199 28.54786133 -53.23108398 28.09572266 -52.31982422 27.62988281 C-48.16966249 25.50692949 -44.02213589 23.37885679 -39.875 21.25 C-39.12846161 20.86716858 -38.38192322 20.48433716 -37.61276245 20.08990479 C-27.07765504 14.68303157 -16.61907791 9.17571071 -6.32568359 3.31738281 C-5.09906006 2.63047363 -5.09906006 2.63047363 -3.84765625 1.9296875 C-3.14648682 1.52991699 -2.44531738 1.13014648 -1.72290039 0.71826172 C-1.15434326 0.48123535 -0.58578613 0.24420898 0 0 Z " fill="#12DBF0" transform="translate(220,277)"/>
<path d="M0 0 C1.65 0 3.3 0 5 0 C2.20609818 2.19786943 -0.59584125 3.93922402 -3.75390625 5.56640625 C-4.68227295 6.04762939 -5.61063965 6.52885254 -6.56713867 7.0246582 C-7.55560791 7.532146 -8.54407715 8.03963379 -9.5625 8.5625 C-18.62183216 13.22938845 -18.62183216 13.22938845 -27.6015625 18.046875 C-28.46193115 18.51407959 -29.3222998 18.98128418 -30.20874023 19.46264648 C-31.8306495 20.34588654 -33.44760777 21.23829495 -35.05883789 22.14086914 C-35.78578857 22.53395264 -36.51273926 22.92703613 -37.26171875 23.33203125 C-38.20470825 23.85373901 -38.20470825 23.85373901 -39.16674805 24.38598633 C-41.45810748 25.15343459 -42.74821645 24.77030605 -45 24 C-45 23.34 -45 22.68 -45 22 C-43.948125 21.87625 -42.89625 21.7525 -41.8125 21.625 C-38.54041229 21.08859218 -35.99463924 20.36119965 -33 19 C-33 18.34 -33 17.68 -33 17 C-32.319375 16.731875 -31.63875 16.46375 -30.9375 16.1875 C-28.70738071 15.28596242 -26.51204223 14.34592764 -24.3125 13.375 C-21 12 -21 12 -19 12 C-18.67 11.01 -18.34 10.02 -18 9 C-14.535 8.505 -14.535 8.505 -11 8 C-11 7.34 -11 6.68 -11 6 C-10.01 5.67 -9.02 5.34 -8 5 C-7.67 4.01 -7.34 3.02 -7 2 C-4.66666667 2 -2.33333333 2 0 2 C0 1.34 0 0.68 0 0 Z " fill="#5A0893" transform="translate(969,404)"/>
<path d="M0 0 C4.88011406 1.45941165 9.1302443 3.50615435 13.5859375 5.9140625 C14.28772125 6.28856537 14.989505 6.66306824 15.71255493 7.04891968 C17.93573461 8.23658808 20.15538941 9.4306771 22.375 10.625 C23.88909401 11.43532368 25.40341471 12.24522397 26.91796875 13.0546875 C30.61461973 15.03156947 34.30812507 17.01421398 38 19 C35 20 35 20 33.0625 19.0625 C32.0415625 18.5365625 32.0415625 18.5365625 31 18 C29.68 18 28.36 18 27 18 C25.375 16.5 25.375 16.5 24 15 C23.34 15 22.68 15 22 15 C22 14.34 22 13.68 22 13 C20.02 12.34 18.04 11.68 16 11 C16 10.34 16 9.68 16 9 C13.36 8.67 10.72 8.34 8 8 C8 7.34 8 6.68 8 6 C7.34 6 6.68 6 6 6 C5.67 5.34 5.34 4.68 5 4 C3.35636866 3.27840576 1.68949614 2.60648579 0 2 C0 1.34 0 0.68 0 0 Z " fill="#7F0AD2" transform="translate(617,85)"/>
<path d="M0 0 C2.875 1.375 2.875 1.375 5 3 C5.495 4.485 5.495 4.485 6 6 C3.56415094 5.05272536 1.25089494 4.14896887 -1 2.8125 C-3.72062428 1.70724639 -5.17631588 2.2570872 -8 3 C-9.69917791 3.77474161 -11.36977776 4.6142659 -13.01171875 5.50390625 C-13.93404297 5.99697266 -14.85636719 6.49003906 -15.80664062 6.99804688 C-17.23266602 7.77245117 -17.23266602 7.77245117 -18.6875 8.5625 C-20.58527016 9.58828736 -22.48491895 10.61060923 -24.38671875 11.62890625 C-25.22420654 12.08338135 -26.06169434 12.53785645 -26.92456055 13.00610352 C-29 14 -29 14 -31 14 C-31 13.34 -31 12.68 -31 12 C-29.35546875 10.78125 -29.35546875 10.78125 -27.1875 9.5 C-26.47980469 9.0771875 -25.77210938 8.654375 -25.04296875 8.21875 C-24.36878906 7.8165625 -23.69460938 7.414375 -23 7 C-22.01 6.34 -21.02 5.68 -20 5 C-17.3125 4.875 -17.3125 4.875 -15 5 C-14.67 4.01 -14.34 3.02 -14 2 C-11.5625 0.875 -11.5625 0.875 -9 0 C-5.84760408 -1.57619796 -3.38428252 -0.68832865 0 0 Z " fill="#8808E1" transform="translate(752,333)"/>
<path d="M0 0 C0.598125 0.20625 1.19625 0.4125 1.8125 0.625 C-1.46903434 3.24792007 -4.93630586 5.21138584 -8.6328125 7.19921875 C-9.24389862 7.52791458 -9.85498474 7.85661041 -10.48458862 8.19526672 C-11.76959523 8.88517884 -13.05551229 9.57339757 -14.34228516 10.26000977 C-16.31585064 11.31428991 -18.28498505 12.37652991 -20.25390625 13.43945312 C-21.50494937 14.10985848 -22.75624285 14.77979689 -24.0078125 15.44921875 C-25.14492676 16.05854248 -26.28204102 16.66786621 -27.45361328 17.2956543 C-30.1875 18.625 -30.1875 18.625 -32.1875 18.625 C-31.8575 17.305 -31.5275 15.985 -31.1875 14.625 C-29.8675 14.295 -28.5475 13.965 -27.1875 13.625 C-27.1875 12.965 -27.1875 12.305 -27.1875 11.625 C-23.53293185 10.87258891 -19.87016103 10.22450296 -16.1875 9.625 C-16.1875 8.965 -16.1875 8.305 -16.1875 7.625 C-15.115 7.191875 -14.0425 6.75875 -12.9375 6.3125 C-10.01351169 5.0627308 -7.65640595 3.65302988 -5.1875 1.625 C-2.1875 -0.375 -2.1875 -0.375 0 0 Z " fill="#850EEB" transform="translate(719.1875,346.375)"/>
<path d="M0 0 C-0.6705542 0.34780518 -1.3411084 0.69561035 -2.03198242 1.05395508 C-5.0846727 2.63850326 -8.13609571 4.22547689 -11.1875 5.8125 C-12.24259766 6.35970703 -13.29769531 6.90691406 -14.38476562 7.47070312 C-15.40634766 8.00244141 -16.42792969 8.53417969 -17.48046875 9.08203125 C-18.41785889 9.56905518 -19.35524902 10.0560791 -20.32104492 10.55786133 C-22.15190566 11.54345272 -23.95161144 12.58859657 -25.7199707 13.68237305 C-28 15 -28 15 -30 15 C-29.67 14.01 -29.34 13.02 -29 12 C-27.68 12 -26.36 12 -25 12 C-25 11.34 -25 10.68 -25 10 C-24.34 10 -23.68 10 -23 10 C-22.67 9.34 -22.34 8.68 -22 8 C-20.29296875 7.03515625 -20.29296875 7.03515625 -18.1875 6.0625 C-15.81786712 4.93048287 -13.85984843 3.89488633 -11.75 2.3125 C-9.82133929 0.86600447 -8.34092595 0.46818519 -6 0 C-3.50907189 -1.24546405 -2.58919267 -0.7767578 0 0 Z " fill="#761BE8" transform="translate(683,368)"/>
<path d="M0 0 C0.58007812 0.26554688 1.16015625 0.53109375 1.7578125 0.8046875 C5.27470932 2.39483557 8.68844539 3.90191799 12.375 5.0625 C15.09163178 6.03272563 16.0574009 6.96910094 18 9 C20.10332891 9.71447643 20.10332891 9.71447643 22 10 C22 10.66 22 11.32 22 12 C22.66 12 23.32 12 24 12 C24.33 12.99 24.66 13.98 25 15 C21.51270698 13.66188443 18.22079449 12.14103268 14.91796875 10.3984375 C13.98662109 9.90859375 13.05527344 9.41875 12.09570312 8.9140625 C11.13599609 8.40617188 10.17628906 7.89828125 9.1875 7.375 C8.20845703 6.859375 7.22941406 6.34375 6.22070312 5.8125 C3.81263475 4.5438591 1.405787 3.27296034 -1 2 C-0.67 1.34 -0.34 0.68 0 0 Z " fill="#771BE9" transform="translate(586,246)"/>
<path d="M0 0 C-4.05662151 2.09996097 -8.11343006 4.19956 -12.17041016 6.29882812 C-13.54969306 7.0125965 -14.92892537 7.72646267 -16.30810547 8.44042969 C-18.2938113 9.46835815 -20.27970056 10.49593147 -22.265625 11.5234375 C-22.87931946 11.84122162 -23.49301392 12.15900574 -24.12530518 12.48641968 C-27.07358661 14.0114193 -30.0259334 15.52584144 -33 17 C-33 16.01 -33 15.02 -33 14 C-30.35261084 12.5393715 -29.10551666 12 -26 12 C-26 11.34 -26 10.68 -26 10 C-24.68 10 -23.36 10 -22 10 C-22 9.34 -22 8.68 -22 8 C-20.58521865 7.35004703 -19.16808513 6.70521278 -17.75 6.0625 C-16.56664062 5.52302734 -16.56664062 5.52302734 -15.359375 4.97265625 C-13.24176302 4.09966721 -11.23330638 3.48661492 -9 3 C-9 2.34 -9 1.68 -9 1 C-3.375 -1.125 -3.375 -1.125 0 0 Z " fill="#6F20E6" transform="translate(745,526)"/>
<path d="M0 0 C-0.33 1.32 -0.66 2.64 -1 4 C-1.99 3.67 -2.98 3.34 -4 3 C-4.33 3.99 -4.66 4.98 -5 6 C-7.3984375 7.0625 -7.3984375 7.0625 -10.375 8 C-14.10411151 9.18072132 -16.38444079 10.08758284 -19 13 C-21.51578949 13.86480264 -23.30646447 14 -26 14 C-23.6641638 11.40637043 -21.26786257 9.91340406 -18.18359375 8.30078125 C-17.25482422 7.81416016 -16.32605469 7.32753906 -15.36914062 6.82617188 C-14.40169922 6.32666016 -13.43425781 5.82714844 -12.4375 5.3125 C-10.98053711 4.54583008 -10.98053711 4.54583008 -9.49414062 3.76367188 C-2.26326769 0 -2.26326769 0 0 0 Z " fill="#8013EC" transform="translate(552,103)"/>
<path d="M0 0 C-1.04031507 3.4053479 -2.10914855 4.060064 -5.30078125 5.81640625 C-6.63234652 6.41130457 -7.96989711 6.99294968 -9.3125 7.5625 C-10.6430648 8.14454144 -11.97251758 8.7291324 -13.30078125 9.31640625 C-14.24751709 9.7343042 -14.24751709 9.7343042 -15.21337891 10.16064453 C-17.58287476 11.27383485 -19.79304103 12.59557156 -22 14 C-21.76147461 12.16113281 -21.76147461 12.16113281 -21 10 C-19.17407227 8.62792969 -19.17407227 8.62792969 -16.81640625 7.421875 C-15.97142578 6.98359375 -15.12644531 6.5453125 -14.25585938 6.09375 C-13.36705078 5.6503125 -12.47824219 5.206875 -11.5625 4.75 C-10.67755859 4.29109375 -9.79261719 3.8321875 -8.88085938 3.359375 C-2.31708054 0 -2.31708054 0 0 0 Z " fill="#711DEA" transform="translate(526,117)"/>
<path d="M0 0 C0.66 0.33 1.32 0.66 2 1 C-0.6008458 3.87950786 -2.21728897 5.21737013 -6 6 C-6.33 6.66 -6.66 7.32 -7 8 C-9.3125 8.5625 -9.3125 8.5625 -12 9 C-13.33542939 9.32483418 -14.66961551 9.6550855 -16 10 C-15.67 10.99 -15.34 11.98 -15 13 C-15.99 13 -16.98 13 -18 13 C-18.33 13.66 -18.66 14.32 -19 15 C-20.65 14.67 -22.3 14.34 -24 14 C-19.52545899 10.06055874 -14.55891322 7.43524468 -9.3125 4.6875 C-8.0121582 3.98657227 -8.0121582 3.98657227 -6.68554688 3.27148438 C-5.85732422 2.83513672 -5.02910156 2.39878906 -4.17578125 1.94921875 C-3.42208252 1.55049561 -2.66838379 1.15177246 -1.8918457 0.7409668 C-1.26753662 0.49644775 -0.64322754 0.25192871 0 0 Z " fill="#10EBF3" transform="translate(163,307)"/>
<path d="M0 0 C-2.68841859 2.25245881 -4.64641875 3.88213958 -8 5 C-8.33 5.99 -8.66 6.98 -9 8 C-8.67 8.66 -8.34 9.32 -8 10 C-14.75 9.25 -14.75 9.25 -17 7 C-15.11248318 5.81992569 -13.21460805 4.65640827 -11.3125 3.5 C-10.25675781 2.8503125 -9.20101563 2.200625 -8.11328125 1.53125 C-5.0229029 0.01126466 -3.37296489 -0.35043791 0 0 Z " fill="#5036EE" transform="translate(449,159)"/>
<path d="M0 0 C4.10693899 1.27712554 7.81593585 2.81290994 11.6171875 4.8203125 C12.63554688 5.35527344 13.65390625 5.89023437 14.703125 6.44140625 C15.74984375 6.99699219 16.7965625 7.55257813 17.875 8.125 C18.94492187 8.68832031 20.01484375 9.25164062 21.1171875 9.83203125 C23.74694017 11.21734739 26.37443083 12.60677596 29 14 C25.2872316 15.23758947 24.45382768 14.64736803 21 13 C18.42694808 11.50533039 15.91962617 9.9262359 13.40234375 8.33984375 C11.21464494 7.11971254 9.44486627 6.45735374 7 6 C7 5.34 7 4.68 7 4 C6.01 4.33 5.02 4.66 4 5 C4 4.34 4 3.68 4 3 C2.68 2.67 1.36 2.34 0 2 C0 1.34 0 0.68 0 0 Z " fill="#440772" transform="translate(980,278)"/>
<path d="M0 0 C2.31 0.33 4.62 0.66 7 1 C7 1.66 7 2.32 7 3 C7.58007812 3.18175781 8.16015625 3.36351562 8.7578125 3.55078125 C13.39147293 5.0418106 17.69762355 6.68333576 22 9 C22 9.66 22 10.32 22 11 C22.99 11 23.98 11 25 11 C25 11.66 25 12.32 25 13 C19.29676416 11.37317535 14.31986097 8.66802013 9.125 5.875 C8.24585938 5.40707031 7.36671875 4.93914062 6.4609375 4.45703125 C4.30505729 3.3087907 2.15153223 2.15636097 0 1 C0 0.67 0 0.34 0 0 Z " fill="#15D5F5" transform="translate(227,405)"/>
<path d="M0 0 C0.66 0.33 1.32 0.66 2 1 C2 1.66 2 2.32 2 3 C-0.90670962 4.54044891 -3.82671338 6.05377922 -6.75 7.5625 C-7.9875 8.21895508 -7.9875 8.21895508 -9.25 8.88867188 C-10.04921875 9.29794922 -10.8484375 9.70722656 -11.671875 10.12890625 C-12.77160645 10.70233765 -12.77160645 10.70233765 -13.89355469 11.28735352 C-16.3589552 12.12144068 -17.58326188 11.86209729 -20 11 C-20 10.34 -20 9.68 -20 9 C-18.948125 8.87625 -17.89625 8.7525 -16.8125 8.625 C-13.54041229 8.08859218 -10.99463924 7.36119965 -8 6 C-8 5.34 -8 4.68 -8 4 C-7.236875 3.71125 -6.47375 3.4225 -5.6875 3.125 C-2.84970692 2.03730987 -2.84970692 2.03730987 0 0 Z " fill="#6509A2" transform="translate(944,417)"/>
<path d="M0 0 C1.98 0.495 1.98 0.495 4 1 C4 1.66 4 2.32 4 3 C4.721875 2.731875 5.44375 2.46375 6.1875 2.1875 C7.115625 2.125625 8.04375 2.06375 9 2 C10.70993434 3.6222454 12.37347684 5.29413425 14 7 C15.051875 7.350625 16.10375 7.70125 17.1875 8.0625 C20 9 20 9 21.375 11.125 C21.58125 11.74375 21.7875 12.3625 22 13 C16.6462535 11.44347945 11.99849053 9.0182491 7.125 6.375 C6.34125 5.95476562 5.5575 5.53453125 4.75 5.1015625 C2.83107943 4.0718978 0.91522397 3.03652433 -1 2 C-0.67 1.34 -0.34 0.68 0 0 Z " fill="#6D0AB3" transform="translate(853,388)"/>
<path d="M0 0 C2.31 0 4.62 0 7 0 C7 0.99 7 1.98 7 3 C7.99 2.67 8.98 2.34 10 2 C10.8971875 2.99 10.8971875 2.99 11.8125 4 C13.87501834 6.3373846 13.87501834 6.3373846 17 6 C19.625 7.3125 19.625 7.3125 22 9 C22.33 9.99 22.66 10.98 23 12 C17.6462535 10.44347945 12.99849053 8.0182491 8.125 5.375 C7.34125 4.95476562 6.5575 4.53453125 5.75 4.1015625 C3.83107943 3.0718978 1.91522397 2.03652433 0 1 C0 0.67 0 0.34 0 0 Z " fill="#6908B1" transform="translate(875,401)"/>
<path d="M0 0 C4.91441412 1.43652105 9.00238358 3.54159615 13.375 6.125 C14.01566406 6.49753906 14.65632812 6.87007813 15.31640625 7.25390625 C16.88048477 8.16434002 18.44065534 9.08148191 20 10 C19.67 10.66 19.34 11.32 19 12 C18.46375 11.71125 17.9275 11.4225 17.375 11.125 C14.64719516 9.83288192 11.87387282 8.91441408 9 8 C9 7.34 9 6.68 9 6 C7.6078125 5.8453125 7.6078125 5.8453125 6.1875 5.6875 C2.97535795 4.99468505 1.88069983 4.6120831 0 2 C0 1.34 0 0.68 0 0 Z " fill="#701CE9" transform="translate(707,481)"/>
<path d="M0 0 C0.66 0.33 1.32 0.66 2 1 C0.47758099 4.04483802 -1.95036084 4.55835239 -5 6 C-6.29326262 6.64263153 -7.58486373 7.28861489 -8.875 7.9375 C-9.54660156 8.27007812 -10.21820313 8.60265625 -10.91015625 8.9453125 C-12.34519978 9.66954008 -13.76934887 10.41564107 -15.18359375 11.1796875 C-15.88613281 11.55351562 -16.58867187 11.92734375 -17.3125 12.3125 C-17.94800781 12.65925781 -18.58351562 13.00601562 -19.23828125 13.36328125 C-21 14 -21 14 -24 13 C-20.04872389 10.79956481 -16.08792152 8.61688192 -12.125 6.4375 C-10.43310547 5.49487305 -10.43310547 5.49487305 -8.70703125 4.53320312 C-7.09248047 3.64858398 -7.09248047 3.64858398 -5.4453125 2.74609375 C-4.45031738 2.19622803 -3.45532227 1.6463623 -2.43017578 1.07983398 C-1.62821777 0.72348877 -0.82625977 0.36714355 0 0 Z " fill="#1BC2F1" transform="translate(220,277)"/>
<path d="M0 0 C0 0.99 0 1.98 0 3 C-1.95309888 4.40113616 -3.95708818 5.73339467 -6 7 C-6.66 7.66 -7.32 8.32 -8 9 C-9.65821773 9.37309899 -11.32577014 9.70700977 -13 10 C-13.99 10.495 -13.99 10.495 -15 11 C-15.66 10.34 -16.32 9.68 -17 9 C-11.39 6.03 -5.78 3.06 0 0 Z " fill="#781AEE" transform="translate(620,268)"/>
<path d="M0 0 C1.43445321 0.76680448 2.85252603 1.56492613 4.25390625 2.390625 C4.98544922 2.79023437 5.71699219 3.18984375 6.47070312 3.6015625 C8.26745022 4.58801189 10.04412273 5.61087083 11.81640625 6.640625 C11.48640625 7.300625 11.15640625 7.960625 10.81640625 8.640625 C8.83640625 7.980625 6.85640625 7.320625 4.81640625 6.640625 C4.81640625 5.980625 4.81640625 5.320625 4.81640625 4.640625 C4.21828125 4.49625 3.62015625 4.351875 3.00390625 4.203125 C1.25490221 3.7533811 -0.47036398 3.21170159 -2.18359375 2.640625 C-2.18359375 1.980625 -2.18359375 1.320625 -2.18359375 0.640625 C-2.92609375 1.15625 -3.66859375 1.671875 -4.43359375 2.203125 C-7.18359375 3.640625 -7.18359375 3.640625 -9.49609375 3.328125 C-10.05296875 3.10125 -10.60984375 2.874375 -11.18359375 2.640625 C-4.81361607 -2.14732143 -4.81361607 -2.14732143 0 0 Z " fill="#7F0DD7" transform="translate(605.18359375,77.359375)"/>
<path d="M0 0 C4.62675657 1.3922459 8.64686231 3.29520984 12.875 5.625 C14.02742187 6.25664062 15.17984375 6.88828125 16.3671875 7.5390625 C17.67042969 8.26222656 17.67042969 8.26222656 19 9 C18.34 9.66 17.68 10.32 17 11 C16.01 11 15.02 11 14 11 C13.34 10.01 12.68 9.02 12 8 C9.91970112 6.92011712 9.91970112 6.92011712 7.5625 6.0625 C4.04040074 4.5959024 1.8674149 3.48584115 0 0 Z " fill="#6309A5" transform="translate(820,193)"/>
<path d="M0 0 C7.33333333 3.66666667 14.66666667 7.33333333 22 11 C20.3125 11.6875 20.3125 11.6875 18 12 C15.5625 10.6875 15.5625 10.6875 13 9 C11.34630643 8.30177383 9.68272986 7.62501395 8 7 C8 6.34 8 5.68 8 5 C7.236875 5.061875 6.47375 5.12375 5.6875 5.1875 C3 5 3 5 1.1875 3.625 C0 2 0 2 0 0 Z " fill="#7818EA" transform="translate(734,495)"/>
<path d="M0 0 C4.44067619 0.5163577 7.24568155 1.6288515 11 4 C13.19130534 4.69579454 13.19130534 4.69579454 15 5 C15 5.66 15 6.32 15 7 C15.99 7 16.98 7 18 7 C18.33 7.99 18.66 8.98 19 10 C14.37324343 8.6077541 10.35313769 6.70479016 6.125 4.375 C4.97257813 3.74335938 3.82015625 3.11171875 2.6328125 2.4609375 C1.32957031 1.73777344 1.32957031 1.73777344 0 1 C0 0.67 0 0.34 0 0 Z " fill="#750DC2" transform="translate(815,369)"/>
<path d="M0 0 C4.62675657 1.3922459 8.64686231 3.29520984 12.875 5.625 C14.02742187 6.25664062 15.17984375 6.88828125 16.3671875 7.5390625 C17.67042969 8.26222656 17.67042969 8.26222656 19 9 C19 9.66 19 10.32 19 11 C14.91274143 9.8037292 11.46848481 8.19843291 7.8125 6.01953125 C4.97425748 4.42301983 2.01296955 3.22978349 -1 2 C-0.67 1.34 -0.34 0.68 0 0 Z " fill="#690CAD" transform="translate(760,161)"/>
<path d="M0 0 C2.81724453 1.28149672 5.62788457 2.57687233 8.4375 3.875 C9.23994141 4.23980469 10.04238281 4.60460937 10.86914062 4.98046875 C11.63291016 5.33496094 12.39667969 5.68945312 13.18359375 6.0546875 C13.89056396 6.37937012 14.59753418 6.70405273 15.32592773 7.03857422 C17 8 17 8 18 10 C9.93071355 9.80661841 9.93071355 9.80661841 6.1875 6.5625 C5.465625 5.716875 4.74375 4.87125 4 4 C1.83379456 2.70480005 1.83379456 2.70480005 0 2 C0 1.34 0 0.68 0 0 Z " fill="#7C0CCD" transform="translate(659,107)"/>
<path d="M0 0 C0.45375 0.66 0.9075 1.32 1.375 2 C1.91125 2.66 2.4475 3.32 3 4 C3.66 4 4.32 4 5 4 C6.625 6.5 6.625 6.5 8 9 C3.76570244 7.68938409 -0.07407404 6.05643741 -4 4 C-3.67 3.01 -3.34 2.02 -3 1 C-2.01 0.67 -1.02 0.34 0 0 Z " fill="#6E0AB3" transform="translate(841,378)"/>
<path d="M0 0 C0.66 0.33 1.32 0.66 2 1 C-1.66119522 4.23547484 -4.45657544 6.18263018 -9 8 C-9.33 8.99 -9.66 9.98 -10 11 C-11.32 10.67 -12.64 10.34 -14 10 C-12.65429346 5.96288039 -10.13333486 5.10607031 -6.5625 3.25 C-5.96373047 2.92128906 -5.36496094 2.59257812 -4.74804688 2.25390625 C-3.20057838 1.4325176 -1.60232635 0.70844078 0 0 Z " fill="#3F48EA" transform="translate(492,335)"/>
<path d="M0 0 C4.95 2.31 9.9 4.62 15 7 C14.67 7.66 14.34 8.32 14 9 C9.93132221 7.76993462 6.58766362 6.26589281 3 4 C1.67391178 3.31903578 0.34313399 2.64669414 -1 2 C-0.67 1.34 -0.34 0.68 0 0 Z " fill="#500C85" transform="translate(915,243)"/>
<path d="M0 0 C0.66 0.33 1.32 0.66 2 1 C-1.36132396 4.65791137 -4.329378 7.21125115 -9 9 C-11.375 8.6875 -11.375 8.6875 -13 8 C-10.23145402 5.85090038 -7.42165474 3.98221172 -4.375 2.25 C-3.59898437 1.80140625 -2.82296875 1.3528125 -2.0234375 0.890625 C-1.35570312 0.59671875 -0.68796875 0.3028125 0 0 Z " fill="#3751EC" transform="translate(477,343)"/>
<path d="M0 0 C2.875 1.375 2.875 1.375 5 3 C5.33 3.99 5.66 4.98 6 6 C3.56415094 5.05272536 1.25089494 4.14896887 -1 2.8125 C-4.52656833 1.37983162 -7.52885918 2.84295306 -11 4 C-11 3.01 -11 2.02 -11 1 C-7.21001104 -1.57719249 -4.34200308 -0.9902814 0 0 Z " fill="#790CD1" transform="translate(752,333)"/>
<path d="M0 0 C4.62675657 1.3922459 8.64686231 3.29520984 12.875 5.625 C14.02742187 6.25664062 15.17984375 6.88828125 16.3671875 7.5390625 C17.67042969 8.26222656 17.67042969 8.26222656 19 9 C17.1875 9.6171875 17.1875 9.6171875 15 10 C12.96166576 8.7260411 10.96147874 7.38938077 9 6 C6.77397385 5.23060319 6.77397385 5.23060319 5 5 C5 4.34 5 3.68 5 3 C3.35 2.67 1.7 2.34 0 2 C0 1.34 0 0.68 0 0 Z " fill="#6C0AAF" transform="translate(730,145)"/>
<path d="M0 0 C5.47932789 1.54545146 10.11429181 4.15543212 15 7 C14.34 7.66 13.68 8.32 13 9 C10.0280615 7.87548273 7.66559313 6.77706209 5 5 C4.01 5 3.02 5 2 5 C2 4.34 2 3.68 2 3 C1.34 2.67 0.68 2.34 0 2 C0 1.34 0 0.68 0 0 Z " fill="#5A0892" transform="translate(858,213)"/>
<path d="M0 0 C0.96099609 0.10828125 0.96099609 0.10828125 1.94140625 0.21875 C6.99557809 0.76107544 11.91779721 1.11048267 17 1 C16 3 16 3 13.75 4.1875 C8.42017416 5.76222127 4.7194862 3.52437634 0 1 C0 0.67 0 0.34 0 0 Z " fill="#3750E3" transform="translate(588,597)"/>
<path d="M0 0 C2.64 0 5.28 0 8 0 C5.23612808 2.15178156 2.43466931 3.98370421 -0.625 5.6875 C-1.40101563 6.12449219 -2.17703125 6.56148438 -2.9765625 7.01171875 C-5 8 -5 8 -7 8 C-6.67 7.01 -6.34 6.02 -6 5 C-4.33333333 4.33333333 -2.66666667 3.66666667 -1 3 C-0.67 2.01 -0.34 1.02 0 0 Z " fill="#57088D" transform="translate(981,396)"/>
<path d="M0 0 C0 0.66 0 1.32 0 2 C-1.72156096 3.01303762 -3.45261806 4.00994848 -5.1875 5 C-6.63189453 5.8353125 -6.63189453 5.8353125 -8.10546875 6.6875 C-11.04888743 8.02216758 -12.81880057 8.27915461 -16 8 C-13.10414095 5.70351643 -10.1827969 3.95652443 -6.875 2.3125 C-5.57175781 1.65701172 -5.57175781 1.65701172 -4.2421875 0.98828125 C-2 0 -2 0 0 0 Z " fill="#552BDE" transform="translate(563,299)"/>
<path d="M0 0 C4.62 2.31 9.24 4.62 14 7 C13.01 7.99 12.02 8.98 11 10 C11 9.34 11 8.68 11 8 C9.68 7.67 8.36 7.34 7 7 C7 6.34 7 5.68 7 5 C5.5459375 4.5978125 5.5459375 4.5978125 4.0625 4.1875 C3.051875 3.795625 2.04125 3.40375 1 3 C0.67 2.01 0.34 1.02 0 0 Z " fill="#670DA6" transform="translate(795,179)"/>
<path d="M0 0 C0.66 0.33 1.32 0.66 2 1 C-1.9369514 4.56200365 -4.80474815 6.56301544 -10 8 C-11.67163195 8.65411685 -13.34015202 9.31653318 -15 10 C-15 9.34 -15 8.68 -15 8 C-12.54665445 6.63603538 -10.08808766 5.28365831 -7.625 3.9375 C-6.92632812 3.54755859 -6.22765625 3.15761719 -5.5078125 2.75585938 C-3.70389816 1.77584822 -1.85416518 0.88124929 0 0 Z " fill="#5730E4" transform="translate(474,143)"/>
<path d="M0 0 C1.43861294 0.08746284 2.87597508 0.19565348 4.3125 0.3125 C5.11300781 0.37050781 5.91351563 0.42851563 6.73828125 0.48828125 C9.4505492 1.10193773 10.30403811 1.82658256 12 4 C12.66 5.32 13.32 6.64 14 8 C9.38 5.69 4.76 3.38 0 1 C0 0.67 0 0.34 0 0 Z " fill="#3282EA" transform="translate(449,523)"/>
<path d="M0 0 C5.34844008 0.53484401 9.35796103 2.46690767 14 5 C13.67 5.66 13.34 6.32 13 7 C8.1725201 5.58707905 4.2837641 3.57025846 0 1 C0 0.67 0 0.34 0 0 Z " fill="#12CDF0" transform="translate(265,425)"/>
<path d="M0 0 C3.7910119 1.44950455 7.3874638 3.15172566 11 5 C10.67 5.66 10.34 6.32 10 7 C7.8125 7.375 7.8125 7.375 5 7 C2.96237639 5.16613875 1.61191578 3.25668209 0 1 C0 0.67 0 0.34 0 0 Z " fill="#590B9D" transform="translate(847,207)"/>
<path d="M0 0 C0.33 0.66 0.66 1.32 1 2 C-7.6 8 -7.6 8 -13 8 C-10.59310197 5.27324841 -8.07528977 3.88033404 -4.8125 2.3125 C-3.91144531 1.87550781 -3.01039063 1.43851562 -2.08203125 0.98828125 C-1.39496094 0.66214844 -0.70789063 0.33601563 0 0 Z " fill="#771AE3" transform="translate(539,109)"/>
<path d="M0 0 C2.97 0.495 2.97 0.495 6 1 C6 1.66 6 2.32 6 3 C7.32 3 8.64 3 10 3 C10.33 4.32 10.66 5.64 11 7 C7.37 5.35 3.74 3.7 0 2 C0 1.34 0 0.68 0 0 Z " fill="#6B21EA" transform="translate(562,234)"/>
<path d="M0 0 C4.9723422 1.49170266 9.41845739 3.60457417 14 6 C13.34 6.66 12.68 7.32 12 8 C9.525 7.01 9.525 7.01 7 6 C7 5.34 7 4.68 7 4 C4.69 3.67 2.38 3.34 0 3 C0 2.01 0 1.02 0 0 Z " fill="#7A0DC7" transform="translate(694,126)"/>
<path d="M0 0 C3.99887575 0.57126796 6.59653716 1.87283572 10 4 C11.65369357 4.69822617 13.31727014 5.37498605 15 6 C15 6.66 15 7.32 15 8 C9.52067211 6.45454854 4.88570819 3.84456788 0 1 C0 0.67 0 0.34 0 0 Z " fill="#2F79E8" transform="translate(483,541)"/>
<path d="M0 0 C4.50802601 1.25805377 7.4912812 2.90407165 11 6 C9.68 6 8.36 6 7 6 C7 5.34 7 4.68 7 4 C4.69 4 2.38 4 0 4 C-0.33 3.01 -0.66 2.02 -1 1 C-0.67 0.67 -0.34 0.34 0 0 Z " fill="#730DC4" transform="translate(683,120)"/>
<path d="M0 0 C3.1129903 1.63061397 4.60708576 3.53497255 6.625 6.375 C2.11697399 5.11694623 -0.8662812 3.47092835 -4.375 0.375 C-2.375 -0.625 -2.375 -0.625 0 0 Z " fill="#1DAEEC" transform="translate(348.375,466.625)"/>
<path d="M0 0 C0.66 0 1.32 0 2 0 C2 0.66 2 1.32 2 2 C2.928125 2.0825 3.85625 2.165 4.8125 2.25 C8 3 8 3 9.875 5.0625 C10.431875 6.0215625 10.431875 6.0215625 11 7 C6.76570244 5.68938409 2.92592596 4.05643741 -1 2 C-0.67 1.34 -0.34 0.68 0 0 Z " fill="#7C0CD1" transform="translate(759,338)"/>
<path d="M0 0 C3.3 1.65 6.6 3.3 10 5 C6.52176885 6.15941038 4.54104422 5.70820884 1 5 C0.67 3.35 0.34 1.7 0 0 Z " fill="#3E086A" transform="translate(1055,317)"/>
<path d="M0 0 C3.7910119 1.44950455 7.3874638 3.15172566 11 5 C11 5.66 11 6.32 11 7 C9.68 7.33 8.36 7.66 7 8 C7 7.34 7 6.68 7 6 C6.34 6 5.68 6 5 6 C3.2856382 4.04072937 1.61594832 2.04119788 0 0 Z " fill="#660CAB" transform="translate(783,173)"/>
<path d="M0 0 C4.455 1.98 4.455 1.98 9 4 C8.01 4.99 7.02 5.98 6 7 C5.01 7 4.02 7 3 7 C2.87625 6.360625 2.7525 5.72125 2.625 5.0625 C2.315625 4.0415625 2.315625 4.0415625 2 3 C1.34 2.67 0.68 2.34 0 2 C0 1.34 0 0.68 0 0 Z " fill="#325EEC" transform="translate(433,335)"/>
<path d="M0 0 C0.515625 0.2475 1.03125 0.495 1.5625 0.75 C0.5725 1.08 -0.4175 1.41 -1.4375 1.75 C-2.0975 2.41 -2.7575 3.07 -3.4375 3.75 C-4.0975 3.42 -4.7575 3.09 -5.4375 2.75 C-5.7675 4.07 -6.0975 5.39 -6.4375 6.75 C-7.0975 6.75 -7.7575 6.75 -8.4375 6.75 C-8.7675 5.76 -9.0975 4.77 -9.4375 3.75 C-3.0375 -0.31153846 -3.0375 -0.31153846 0 0 Z " fill="#10CFF9" transform="translate(196.4375,291.25)"/>
<path d="M0 0 C0.515625 0.268125 1.03125 0.53625 1.5625 0.8125 C4.66401415 2.32349407 7.82262806 3.65572726 11 5 C10.67 5.66 10.34 6.32 10 7 C6.2089881 5.55049545 2.6125362 3.84827434 -1 2 C-0.67 1.34 -0.34 0.68 0 0 Z " fill="#7B0CCD" transform="translate(795,357)"/>
<path d="M0 0 C1.32 0.33 2.64 0.66 4 1 C0.87567603 3.52349243 -2.38060496 5.27256146 -6 7 C-5.8125 5.125 -5.8125 5.125 -5 3 C-2.4375 1.75 -2.4375 1.75 0 1 C0 0.67 0 0.34 0 0 Z " fill="#8308E1" transform="translate(717,346)"/>
<path d="M0 0 C0.33 0.66 0.66 1.32 1 2 C0.195625 2.45375 -0.60875 2.9075 -1.4375 3.375 C-4.08856572 4.74725665 -4.08856572 4.74725665 -5 7 C-6.32 7 -7.64 7 -9 7 C-9 6.34 -9 5.68 -9 5 C-6.03 3.35 -3.06 1.7 0 0 Z " fill="#5F28E7" transform="translate(572,293)"/>
<path d="M0 0 C2.33944736 0.28730055 4.6739143 0.61936779 7 1 C7 2.32 7 3.64 7 5 C1.25 3.25 1.25 3.25 -1 1 C-0.67 0.67 -0.34 0.34 0 0 Z " fill="#6827EF" transform="translate(529,216)"/>
<path d="M0 0 C4.03174806 0.27489191 5.56894631 0.53491576 8.375 3.5625 C8.91125 4.366875 9.4475 5.17125 10 6 C6.51329166 4.8905928 3.22515763 3.73662334 0 2 C0 1.34 0 0.68 0 0 Z " fill="#3468EF" transform="translate(528,564)"/>
<path d="M0 0 C4.12751449 0.60698743 7.3321148 2.03810791 11 4 C10.01 4.66 9.02 5.32 8 6 C8 5.34 8 4.68 8 4 C5.69 3.67 3.38 3.34 1 3 C0.67 2.01 0.34 1.02 0 0 Z " fill="#6F24EA" transform="translate(685,470)"/>
<path d="M0 0 C2 3 2 3 1.625 5.1875 C1.41875 5.785625 1.2125 6.38375 1 7 C-0.98 6.01 -2.96 5.02 -5 4 C-3.35 2.68 -1.7 1.36 0 0 Z " fill="#0BEDEC" transform="translate(187,378)"/>
<path d="M0 0 C2.97 0.33 5.94 0.66 9 1 C9.33 1.99 9.66 2.98 10 4 C7 5 7 5 5.17578125 4.22265625 C3.45052083 3.1484375 1.72526042 2.07421875 0 1 C0 0.67 0 0.34 0 0 Z " fill="#8009D1" transform="translate(785,353)"/>
<path d="M0 0 C0.66 0.33 1.32 0.66 2 1 C-1.25179812 3.21713508 -4.4213696 5.34832443 -8 7 C-8.66 6.34 -9.32 5.68 -10 5 C-8.38007835 4.13624104 -6.75388139 3.28424146 -5.125 2.4375 C-4.22007812 1.96183594 -3.31515625 1.48617188 -2.3828125 0.99609375 C-1.20332031 0.50302734 -1.20332031 0.50302734 0 0 Z " fill="#22ABEE" transform="translate(251,261)"/>
<path d="M0 0 C0.66 0.33 1.32 0.66 2 1 C2 1.99 2 2.98 2 4 C-0.64738916 5.4606285 -1.89448334 6 -5 6 C-5 5.34 -5 4.68 -5 4 C-3.35 3.34 -1.7 2.68 0 2 C0 1.34 0 0.68 0 0 Z " fill="#5733EF" transform="translate(598,408)"/>
<path d="M0 0 C3.7910119 1.44950455 7.3874638 3.15172566 11 5 C11 5.33 11 5.66 11 6 C8.3125 6.375 8.3125 6.375 5 6 C2.93601924 4.176017 1.60958947 2.27236161 0 0 Z " fill="#3D0B62" transform="translate(1039,309)"/>
<path d="M0 0 C-4.95 2.475 -4.95 2.475 -10 5 C-10 4.01 -10 3.02 -10 2 C-3.375 -1.125 -3.375 -1.125 0 0 Z " fill="#6924E4" transform="translate(722,538)"/>
<path d="M0 0 C0 1.65 0 3.3 0 5 C-2.91517292 3.92598892 -4.77810176 3.22189824 -7 1 C-2.25 0 -2.25 0 0 0 Z " fill="#2391EC" transform="translate(430,508)"/>
<path d="M0 0 C-1.28913487 0.67154933 -2.58140204 1.33708859 -3.875 2 C-4.59429688 2.37125 -5.31359375 2.7425 -6.0546875 3.125 C-8 4 -8 4 -10 4 C-10 3.34 -10 2.68 -10 2 C-4.10714286 -1.34821429 -4.10714286 -1.34821429 0 0 Z " fill="#7E0BD1" transform="translate(731,343)"/>
<path d="M0 0 C3.37503669 1.1858237 5.64722731 2.27573689 8 5 C7.01 5.66 6.02 6.32 5 7 C4.87625 6.071875 4.87625 6.071875 4.75 5.125 C4.18741541 2.81562433 4.18741541 2.81562433 1.9375 1.75 C1.298125 1.5025 0.65875 1.255 0 1 C0 0.67 0 0.34 0 0 Z " fill="#3E095F" transform="translate(1088,335)"/>
<path d="M0 0 C2.97 0.495 2.97 0.495 6 1 C6 1.66 6 2.32 6 3 C4.02 3.66 2.04 4.32 0 5 C0 3.35 0 1.7 0 0 Z " fill="#4247F1" transform="translate(616,588)"/>
<path d="M0 0 C0 0.99 0 1.98 0 3 C-1.98 3.33 -3.96 3.66 -6 4 C-5.67 3.01 -5.34 2.02 -5 1 C-3 0 -3 0 0 0 Z " fill="#552FF6" transform="translate(680,557)"/>
<path d="M0 0 C3.3 1.65 6.6 3.3 10 5 C6 6 6 6 3.3125 4.75 C1 3 1 3 0 0 Z " fill="#761CDF" transform="translate(746,501)"/>
<path d="M0 0 C0.66 0.33 1.32 0.66 2 1 C0.35 2.65 -1.3 4.3 -3 6 C-3.99 5.67 -4.98 5.34 -6 5 C-2.25 1.125 -2.25 1.125 0 0 Z " fill="#13FBF1" transform="translate(110,335)"/>
<path d="M0 0 C0.33 1.32 0.66 2.64 1 4 C-3.455 4.495 -3.455 4.495 -8 5 C-5.44008376 2.98863724 -2.95409701 1.37154504 0 0 Z " fill="#631BD9" transform="translate(503,128)"/>
<path d="M0 0 C0.99 0.33 1.98 0.66 3 1 C3 1.66 3 2.32 3 3 C0.69 3.33 -1.62 3.66 -4 4 C-3.34 3.67 -2.68 3.34 -2 3 C-2 2.34 -2 1.68 -2 1 C-1.34 0.67 -0.68 0.34 0 0 Z " fill="#4F3AF3" transform="translate(655,569)"/>
<path d="M0 0 C1.65 0 3.3 0 5 0 C5.33 0.66 5.66 1.32 6 2 C3.625 3.5625 3.625 3.5625 1 5 C0.34 4.67 -0.32 4.34 -1 4 C-0.67 2.68 -0.34 1.36 0 0 Z " fill="#480976" transform="translate(1038,366)"/>
<path d="M0 0 C3.45925163 1.2491742 6.14693203 2.67527795 9 5 C5.93606987 5.25532751 4.36766788 5.21861333 1.6875 3.625 C1.130625 3.08875 0.57375 2.5525 0 2 C0 1.34 0 0.68 0 0 Z " fill="#3D0B65" transform="translate(1026,302)"/>
<path d="M0 0 C2.475 0.99 2.475 0.99 5 2 C4.01 2.99 3.02 3.98 2 5 C1.01 4.67 0.02 4.34 -1 4 C-0.67 2.68 -0.34 1.36 0 0 Z " fill="#6C06B7" transform="translate(755,158)"/>
<path d="M0 0 C3.91211733 1.15585285 6.8745041 2.35534962 10 5 C8.51793505 4.745504 7.03931385 4.47088238 5.5625 4.1875 C4.73878906 4.03667969 3.91507813 3.88585937 3.06640625 3.73046875 C2.38449219 3.48941406 1.70257812 3.24835938 1 3 C0.67 2.01 0.34 1.02 0 0 Z " fill="#780EC6" transform="translate(617,85)"/>
</svg>
