<?xml version="1.0" encoding="UTF-8"?>
<svg version="1.1" xmlns="http://www.w3.org/2000/svg" width="320" height="320">
<path d="M0 0 C0 61.05 0 122.1 0 185 C-23.22453844 185 -42.05054639 179.84009944 -60 165 C-61.27423828 163.96939453 -61.27423828 163.96939453 -62.57421875 162.91796875 C-69.12243242 157.35248853 -74.15158001 151.07178022 -79 144 C-79.83337891 142.79923828 -79.83337891 142.79923828 -80.68359375 141.57421875 C-83.88088493 136.63295056 -86.15377372 131.47643117 -88.25 126 C-88.49645264 125.3596582 -88.74290527 124.71931641 -88.99682617 124.05957031 C-92.75974145 113.75285043 -93.40879716 103.7335539 -93.375 92.8125 C-93.37412384 92.12235809 -93.37324768 91.43221619 -93.37234497 90.72116089 C-93.32973164 80.56370545 -92.85599072 71.52054346 -89 62 C-88.75330566 61.3507959 -88.50661133 60.7015918 -88.25244141 60.03271484 C-84.7016745 50.73184167 -80.40084547 42.70494296 -74 35 C-73.30003906 34.14921875 -72.60007812 33.2984375 -71.87890625 32.421875 C-53.26227047 10.78542842 -28.35314853 0 0 0 Z " fill="#000000" transform="translate(155,119)"/>
<path d="M0 0 C30.69 0 61.38 0 93 0 C93 30.69 93 61.38 93 93 C62.31 93 31.62 93 0 93 C0 62.31 0 31.62 0 0 Z " fill="#000000" transform="translate(62,16)"/>
<path d="M0 0 C8.81220586 5.9420123 15.1293852 13.41232949 19.15234375 23.26953125 C19.508125 24.1203125 19.86390625 24.97109375 20.23046875 25.84765625 C23.23376221 36.99547435 22.64786423 51.03052507 17.75390625 61.515625 C10.74980697 73.55925913 0.59682661 82.20865503 -12.84765625 86.26953125 C-25.82782135 89.41881721 -38.62726078 86.96386674 -50.16015625 80.51953125 C-60.91051311 73.53267047 -68.04779902 63.56498056 -71.37890625 51.1328125 C-73.60473294 37.53672115 -71.6636664 24.748684 -63.84765625 13.26953125 C-49.152865 -6.34363982 -21.3642268 -12.98265085 0 0 Z " fill="#000000" transform="translate(236.84765625,21.73046875)"/>
</svg>
